<svg width="99" height="25" viewBox="0 0 99 25" fill="none" xmlns="http://www.w3.org/2000/svg">
<path fill-rule="evenodd" clip-rule="evenodd" d="M45.6021 24.2363H51.484V0.771484H45.6021V24.2363Z" fill="white"/>
<path fill-rule="evenodd" clip-rule="evenodd" d="M66.1147 19.275C69.8525 19.275 72.5985 16.0725 72.5985 12.4775C72.5985 8.88215 69.8371 5.71006 66.1147 5.71006C62.377 5.71006 59.6157 8.88215 59.6157 12.4775C59.6157 16.0725 62.377 19.275 66.1147 19.275ZM66.1605 0C73.2087 0 78.8841 5.40792 78.8841 12.4321C78.8841 19.4865 73.1631 25 66.0994 25C59.0359 25 53.3149 19.5621 53.3149 12.5228C53.3149 5.49843 59.1124 0 66.1605 0ZM79.5606 17.1206L84.9576 15.8509C85.3452 18.6704 87.4174 19.6891 89.594 19.6891C91.7559 19.6891 92.5461 18.4195 92.5461 17.4305C92.5461 16.6333 92.0838 15.851 90.5035 15.541L87.2086 14.9062C83.2728 14.1534 80.485 11.7029 80.485 7.93859C80.485 3.4511 84.6145 0.292055 89.281 0.292055C95.2892 0.292055 97.7639 4.01207 98.1964 7.12686L92.9038 8.60298C92.6206 6.68389 91.4279 5.29643 89.2512 5.29643C87.3726 5.29643 86.4781 6.53639 86.4781 7.48103C86.4781 8.26341 86.8509 9.16395 88.2523 9.42961L91.6813 10.0791C96.1687 10.9354 98.6288 13.6515 98.6288 17.1796C98.6288 21.0177 95.2892 24.7081 89.5643 24.7081C83.571 24.7081 80.3508 21.5933 79.5606 17.1206Z" fill="white"/>
<path fill-rule="evenodd" clip-rule="evenodd" d="M6.3302 24.2363H0L10.4674 0.771484H16.8279L6.3302 24.2363Z" fill="#EDEDED"/>
<path fill-rule="evenodd" clip-rule="evenodd" d="M36.3271 12.2525L44.1895 0.771484H36.9958L32.7553 7.72167L28.6128 0.771484H21.3217L29.2868 12.2525L24.8547 18.6866L16.8699 0.785306H10.5088L21.0071 24.2507H27.7961L32.7553 16.8122L37.656 24.2507H44.5193L36.3271 12.2525Z" fill="white"/>
</svg>
