<svg width="143" height="24" viewBox="0 0 143 24" fill="none" xmlns="http://www.w3.org/2000/svg">
<g clip-path="url(#clip0_1_958)">
<path d="M37.8303 16.2073C38.3083 16.2312 38.8818 16.279 39.2881 16.3507C39.3597 16.5419 39.3597 16.9961 39.3358 17.1873H34.9864C35.0103 16.9483 35.1059 16.5897 35.1776 16.3746C35.4883 16.3029 36.0857 16.2073 36.4442 16.1834V7.60168H33.9827C33.9589 7.96024 33.8394 8.60566 33.7916 8.89252C33.5526 8.96423 33.1463 8.98814 32.8835 8.98814V6.69331H41.391V9.05985C41.0803 9.05985 40.698 9.01204 40.459 8.96423C40.3873 8.62957 40.2917 8.00806 40.2678 7.62559H37.8303V16.2073ZM44.5217 16.2551C44.8801 16.279 45.3581 16.3507 45.6209 16.4463C45.6687 16.6375 45.6926 16.9722 45.6448 17.1634H42.0123C42.0362 16.9244 42.1079 16.6854 42.2274 16.4941C42.4664 16.3985 42.8965 16.2551 43.2073 16.2073V7.12359H42.1079C42.1318 6.86065 42.2274 6.54989 42.3708 6.31085C42.7293 6.16742 43.2551 6.0957 43.733 6.0957C43.9959 6.0957 44.2827 6.11962 44.4978 6.19133V9.13156C44.4978 9.7531 44.4739 10.3985 44.4261 11.02H44.5695C44.8084 10.4224 45.597 9.7292 46.9353 9.7292C48.154 9.7292 49.2294 10.1117 49.2294 12.4543C49.2294 13.7212 49.2056 14.9882 49.1338 16.2551C49.5402 16.279 50.0659 16.3507 50.3527 16.4463C50.3766 16.5658 50.4005 16.7571 50.4005 16.9244C50.4005 17.02 50.4005 17.0917 50.3766 17.1873H46.7919C46.8158 16.9483 46.8875 16.7093 47.007 16.518C47.246 16.4224 47.6044 16.279 47.8673 16.2312V12.6933C47.8673 11.522 47.4849 10.781 46.4095 10.781C45.6209 10.781 44.7845 11.3308 44.4739 11.761V16.2551H44.5217ZM52.6946 13.769C52.7185 15.3945 53.7461 16.3985 55.1561 16.3985C55.8014 16.3985 56.7095 16.1834 57.283 15.9682C57.3069 16.2073 57.2113 16.6136 57.0918 16.8288C56.5422 17.1395 55.6341 17.4503 54.702 17.4503C52.5274 17.4503 51.2847 15.8248 51.2847 13.7451C51.2847 11.522 52.6707 9.7531 54.7737 9.7531C56.59 9.7531 57.3547 11.0678 57.3547 12.9801C57.3547 13.2431 57.3308 13.506 57.3069 13.7929C57.3308 13.769 52.6946 13.769 52.6946 13.769ZM56.0165 12.8845C56.112 11.8327 55.8253 10.5658 54.5586 10.5658C53.4832 10.5658 52.7902 11.4981 52.6946 12.8845H56.0165ZM61.6084 17.1873C61.6324 16.9483 61.7041 16.5897 61.7997 16.3746C62.0626 16.3029 62.6361 16.2073 62.9707 16.1834V7.64948C62.6122 7.62558 62.1104 7.57778 61.8475 7.55387C61.7997 7.36263 61.7758 6.88454 61.8236 6.69331H65.6472C65.695 6.88454 65.6711 7.33873 65.6233 7.55387C65.2648 7.62559 64.7869 7.64949 64.3806 7.6734V16.2312C64.8108 16.2551 65.3604 16.3029 65.7189 16.3746C65.7667 16.5419 65.7906 16.7571 65.7906 16.9722C65.7906 17.0678 65.7906 17.1156 65.7667 17.2112L61.6084 17.1873ZM69.2319 16.2551C69.6142 16.279 70.0683 16.3507 70.3311 16.4463C70.3789 16.6375 70.4028 16.9722 70.355 17.1634H66.7226C66.7465 16.9244 66.8181 16.6854 66.9376 16.4941C67.1766 16.3985 67.6068 16.2551 67.9175 16.2073V10.8288H66.7942C66.8181 10.5658 66.9137 10.2551 67.0571 10.016C67.3678 9.89653 67.8697 9.80091 68.3238 9.80091C68.5866 9.80091 68.8256 9.82481 69.0407 9.89653V10.9961H69.1841C69.4469 10.4702 70.2595 9.70529 71.6216 9.70529C72.8165 9.70529 73.868 10.0878 73.868 12.4303C73.868 13.6973 73.8441 14.9404 73.7724 16.2312C74.1787 16.2551 74.7044 16.3268 74.9912 16.4224C75.0151 16.5419 75.039 16.7332 75.039 16.9005C75.039 16.9961 75.039 17.0678 75.0151 17.1634H71.4304C71.4543 16.9244 71.526 16.6854 71.6455 16.4941C71.8845 16.3985 72.2429 16.2551 72.5058 16.2073V12.6694C72.5058 11.4981 72.1473 10.7571 71.072 10.7571C70.3072 10.7571 69.4947 11.3069 69.1841 11.7371L69.2319 16.2551ZM80.3682 9.99214C80.416 10.2551 80.4399 10.6375 80.4399 10.8766H78.3846V16.2312C78.8148 16.2551 79.5317 16.3985 79.8902 16.4941C79.9381 16.6854 79.9619 16.9722 79.9142 17.1873H75.8754C75.8993 16.9483 75.971 16.7093 76.0905 16.518C76.3295 16.4224 76.7596 16.279 77.0703 16.2312V10.8766H75.8754C75.8754 10.6615 75.971 10.3029 76.0666 10.0878C76.3534 9.99214 76.7596 9.87262 77.0703 9.82481V9.01204C77.0703 6.95627 78.3129 6.14351 79.7469 6.14351C80.2248 6.14351 80.7984 6.21523 81.3958 6.40646C81.4197 6.57379 81.4436 6.74112 81.4436 6.93235C81.4436 7.41044 81.348 7.93634 81.2285 8.27101C80.9895 8.27101 80.5355 8.17538 80.3443 8.03196V6.98017C80.2009 6.90846 79.9858 6.88455 79.8664 6.88455C79.0538 6.88455 78.4085 7.29092 78.4085 8.8447V9.99214H80.3682ZM88.0871 13.4821C88.0871 16.016 86.7489 17.4503 84.6458 17.4503C82.4234 17.4503 81.2046 16.0878 81.2046 13.4821C81.2046 11.1634 82.6862 9.7292 84.6458 9.7292C86.7011 9.7292 88.0871 11.0678 88.0871 13.4821ZM84.6458 16.5419C86.032 16.5419 86.7011 15.3706 86.7011 13.4821C86.7011 11.8567 85.8886 10.6375 84.6458 10.6375C83.3076 10.6375 82.5668 11.7849 82.5668 13.4821C82.5907 15.3228 83.3554 16.5419 84.6458 16.5419ZM91.7195 11.3547C91.9346 10.4224 92.6994 9.7292 93.6792 9.7292C93.8704 9.7292 94.181 9.77701 94.3722 9.84872C94.4678 10.0399 94.5634 10.3746 94.5634 10.7571C94.5634 10.9005 94.5395 11.0439 94.5156 11.1634C94.2527 10.9961 93.8465 10.9005 93.488 10.9005C92.795 10.9005 92.1259 11.283 91.7434 12.1435V16.2073C92.1737 16.2312 92.8906 16.3507 93.2491 16.4702C93.2968 16.6615 93.3207 16.9483 93.2729 17.1634H89.2342C89.2581 16.9244 89.3298 16.6854 89.4493 16.4941C89.6883 16.3985 90.1184 16.2551 90.4291 16.2073V10.8288H89.3298C89.3537 10.5658 89.4493 10.2551 89.5927 10.016C89.9272 9.89653 90.4052 9.80091 90.8592 9.80091C91.1221 9.80091 91.3611 9.82481 91.5761 9.89653V11.3308H91.7195V11.3547ZM97.9569 16.2551C98.3389 16.279 98.7928 16.3507 99.0558 16.4463C99.1038 16.6375 99.1278 16.9722 99.0798 17.1634H95.4715C95.4954 16.9244 95.5671 16.6854 95.6866 16.4941C95.9256 16.3985 96.3561 16.2551 96.6661 16.2073V10.8288H95.5671C95.591 10.5658 95.6866 10.2551 95.83 10.016C96.1411 9.89653 96.6421 9.80091 97.097 9.80091C97.359 9.80091 97.598 9.82481 97.8139 9.89653V10.9961H97.9569C98.2199 10.4702 99.0088 9.70529 100.347 9.70529C101.279 9.70529 102.067 9.96824 102.354 11.0917H102.425C102.688 10.5419 103.501 9.70529 104.863 9.70529C106.034 9.70529 107.086 10.0878 107.086 12.4303C107.086 13.7212 107.062 14.9882 106.99 16.2312C107.397 16.2551 107.922 16.3268 108.209 16.4224C108.233 16.5419 108.257 16.7332 108.257 16.9005C108.257 16.9961 108.257 17.0678 108.233 17.1634H104.648C104.672 16.9244 104.744 16.6854 104.863 16.4941C105.102 16.3985 105.461 16.2551 105.724 16.2073V12.6694C105.724 11.4981 105.365 10.7571 104.337 10.7571C103.573 10.7571 102.808 11.3069 102.497 11.7371V16.2551C102.879 16.279 103.334 16.3746 103.596 16.4702C103.644 16.6615 103.668 16.9961 103.62 17.1873H100.132C100.156 16.9483 100.227 16.7093 100.347 16.518C100.586 16.4224 100.944 16.279 101.207 16.2312V12.6933C101.207 11.522 100.849 10.781 99.8207 10.781C99.0558 10.781 98.2919 11.3308 97.9809 11.761L97.9569 16.2551ZM113.49 16.3029C113.108 17.0439 112.271 17.4503 111.363 17.4503C110.265 17.4503 109.213 16.8049 109.213 15.4184C109.213 13.8646 110.527 13.0519 112.032 13.0519C112.51 13.0519 113.06 13.1475 113.442 13.3148V12.5021C113.442 11.3786 112.964 10.8049 112.008 10.8049C111.363 10.8049 110.336 11.1873 109.787 11.5459C109.715 11.4025 109.715 11.2351 109.715 11.02C109.715 10.7332 109.787 10.4224 109.882 10.2551C110.384 9.96824 111.554 9.7292 112.343 9.7292C113.992 9.7292 114.733 10.5419 114.733 12.5977V15.538C114.733 15.8487 114.805 16.2073 114.924 16.3268C115.163 16.3268 115.689 16.2312 115.976 16.1356C116 16.2073 116 16.2551 116 16.3029C116 16.5419 115.928 16.8049 115.856 16.9961C115.522 17.2112 114.733 17.4264 114.231 17.4264C113.92 17.2351 113.634 16.7571 113.586 16.279L113.49 16.3029ZM113.442 13.9841C113.156 13.9124 112.678 13.8646 112.391 13.8646C111.22 13.8646 110.551 14.3905 110.551 15.2033C110.551 16.0399 111.196 16.4224 111.937 16.4224C112.534 16.4224 113.156 16.1356 113.466 15.6814C113.442 15.6575 113.442 13.9841 113.442 13.9841ZM117.864 8.15148C118.103 8.03196 118.581 7.91244 118.868 7.91244V9.99214H121.066C121.09 10.1356 121.137 10.6375 121.113 10.8766H118.868V15.036C118.868 16.016 119.011 16.4463 119.847 16.4463C120.277 16.4463 120.779 16.3746 121.257 16.2551C121.281 16.3268 121.281 16.4224 121.281 16.4463C121.281 16.6615 121.209 16.9005 121.137 17.0439C120.54 17.3069 119.871 17.4503 119.274 17.4503C118.103 17.4503 117.529 16.8049 117.529 15.2511C117.529 14.3666 117.553 12.4064 117.601 10.8766H116.549C116.549 10.6615 116.645 10.279 116.741 10.0878C116.98 9.99214 117.338 9.87262 117.625 9.82481C117.601 9.80091 117.864 8.15148 117.864 8.15148ZM122.428 10.8527C122.452 10.5897 122.547 10.279 122.691 10.0399C123.049 9.92043 123.551 9.82481 124.053 9.82481C124.316 9.82481 124.603 9.84872 124.842 9.92043V16.2551C125.224 16.279 125.726 16.3746 126.037 16.4702C126.061 16.5897 126.085 16.781 126.085 16.9483C126.085 17.0439 126.085 17.1156 126.061 17.2112H122.332C122.356 16.9722 122.428 16.7332 122.547 16.5419C122.786 16.4463 123.217 16.3029 123.527 16.2551V10.8766C123.527 10.8527 122.428 10.8527 122.428 10.8527ZM125.081 7.31483C125.081 7.88853 124.722 8.19929 124.244 8.19929C123.695 8.19929 123.384 7.88853 123.384 7.31483C123.384 6.81283 123.742 6.47818 124.244 6.47818C124.722 6.47818 125.081 6.78893 125.081 7.31483ZM133.732 13.4821C133.732 16.016 132.393 17.4503 130.29 17.4503C128.068 17.4503 126.85 16.0878 126.85 13.4821C126.85 11.1634 128.331 9.7292 130.29 9.7292C132.37 9.7292 133.732 11.0678 133.732 13.4821ZM130.314 16.5419C131.7 16.5419 132.37 15.3706 132.37 13.4821C132.37 11.8567 131.557 10.6375 130.314 10.6375C128.976 10.6375 128.235 11.7849 128.235 13.4821C128.235 15.3228 129.023 16.5419 130.314 16.5419ZM137.531 16.2551C137.913 16.279 138.368 16.3507 138.63 16.4463C138.678 16.6375 138.702 16.9722 138.654 17.1634H135.022C135.046 16.9244 135.118 16.6854 135.238 16.4941C135.477 16.3985 135.907 16.2551 136.217 16.2073V10.8288H135.118C135.142 10.5658 135.238 10.2551 135.381 10.016C135.692 9.89653 136.194 9.80091 136.648 9.80091C136.91 9.80091 137.149 9.82481 137.364 9.89653V10.9961H137.507C137.77 10.4702 138.583 9.70529 139.945 9.70529C141.14 9.70529 142.192 10.0878 142.192 12.4303C142.192 13.6973 142.168 14.9404 142.096 16.2312C142.502 16.2551 143.028 16.3268 143.315 16.4224C143.339 16.5419 143.363 16.7332 143.363 16.9005C143.363 16.9961 143.363 17.0678 143.339 17.1634H139.754C139.778 16.9244 139.849 16.6854 139.969 16.4941C140.184 16.3985 140.566 16.2551 140.829 16.2073V12.6694C140.829 11.4981 140.471 10.7571 139.395 10.7571C138.63 10.7571 137.818 11.3069 137.507 11.7371L137.531 16.2551Z" fill="white"/>
<path fill-rule="evenodd" clip-rule="evenodd" d="M11.9966 0C18.6163 0 23.9933 5.37849 23.9933 12C23.9933 18.6454 18.6163 24 11.9966 24C5.37698 24 0 18.6215 0 12C0 5.37849 5.37698 0 11.9966 0ZM13.1915 14.8686L15.9398 15.5141C16.2266 15.5858 16.4416 15.8248 16.4177 16.1356V17.2591H7.5517V16.1356C7.5517 15.8487 7.76677 15.5858 8.05355 15.5141L10.8018 14.8686V9.17938L8.05355 8.53395C7.76677 8.46224 7.57559 8.19929 7.57559 7.91244V6.78894H16.4416V7.91244C16.4416 8.19929 16.2266 8.46224 15.9398 8.53395L13.1915 9.17938V14.8686Z" fill="white"/>
</g>
<defs>
<clipPath id="clip0_1_958">
<rect width="143" height="24" fill="white"/>
</clipPath>
</defs>
</svg>
