<svg width="143" height="20" viewBox="0 0 143 20" fill="none" xmlns="http://www.w3.org/2000/svg">
<path d="M29.2508 0.123535H24.7507L13.5004 20.0002H18.0005L29.2508 0.123535Z" fill="white"/>
<path d="M85.3465 11.9295C85.3465 10.0088 84.8273 8.44053 83.7715 7.22467C82.6638 5.93833 81.1406 5.28634 79.2367 5.28634C77.1771 5.28634 75.4982 5.97357 74.2001 7.34802C72.902 8.70485 72.2616 10.467 72.2616 12.6167C72.2616 14.6784 72.9193 16.3877 74.252 17.7797C75.6367 19.2247 77.4367 19.9471 79.6521 19.9471C81.0714 19.9471 82.4214 19.5947 83.7023 18.8899C84.1003 18.6784 84.4638 18.4317 84.7927 18.1674L85.1734 17.8326L83.7542 15.4185L83.4599 15.6652C83.2176 15.859 82.9407 16.0529 82.6465 16.2115C81.7291 16.7225 80.8118 16.9868 79.8945 16.9868C78.804 16.9868 77.904 16.6696 77.1598 16.0352C76.3636 15.348 75.8963 14.4141 75.7751 13.2159H85.26C85.3292 12.6344 85.3465 12.1938 85.3465 11.9295ZM81.0541 8.75771C81.556 9.28634 81.8157 9.97357 81.8503 10.8018H75.879C76.0694 9.9207 76.4674 9.21586 77.0559 8.72247C77.6444 8.22907 78.3886 7.98238 79.2714 7.98238C79.9637 7.96476 80.5695 8.22907 81.0541 8.75771ZM100.353 3.3304V0.105727H97.3757V3.31278L100.353 3.3304ZM100.803 16.511C100.699 16.4053 100.647 16.2643 100.647 16.0705V7.47137C100.647 6.81938 100.508 6.36123 100.214 6.06167C99.92 5.76211 99.4527 5.60352 98.8123 5.60352H91.5082V5.33921C91.5082 4.44053 91.8198 3.78855 92.4256 3.40088C92.841 3.13656 93.3948 2.99559 94.0698 2.99559C94.3641 2.99559 94.6237 3.01322 94.8487 3.06608V0.0881057C94.5372 0.0352423 94.1564 0 93.6891 0C92.2698 0 91.0928 0.281938 90.1755 0.881057C88.7908 1.74449 88.0812 3.18943 88.0812 5.19824V5.60352H86.3677V8.38766H88.0639V19.6123H91.4909V8.37004H96.6141C96.8045 8.37004 96.943 8.42291 97.0468 8.52863C97.1507 8.63436 97.2026 8.77533 97.2026 8.96916V17.7269C97.2026 18.3789 97.3411 18.8546 97.6353 19.1542C97.9296 19.4361 98.3969 19.5947 99.0373 19.5947H102.291V16.652H101.235C101.045 16.652 100.907 16.5991 100.803 16.511ZM109.578 5.60352V8.38766H111.361V14.4846C111.361 16.5463 112.07 18.0088 113.49 18.8722C114.442 19.4537 115.636 19.7533 117.072 19.7533C117.488 19.7533 117.834 19.7181 118.128 19.6652V16.5991C117.972 16.6344 117.765 16.652 117.505 16.652C116.813 16.652 116.242 16.511 115.792 16.2115C115.117 15.7709 114.788 15.0485 114.788 14.0264V8.37004H117.92V5.60352H114.788V1.77974H111.447V5.5859L109.578 5.60352ZM102.568 3.0837H103.641C104.039 3.0837 104.23 3.27753 104.23 3.68282V17.7445C104.23 18.3965 104.368 18.8722 104.662 19.1718C104.939 19.4537 105.407 19.6123 106.064 19.6123H109.301V16.652H108.245C108.055 16.652 107.916 16.5991 107.813 16.4934C107.709 16.3877 107.657 16.2467 107.657 16.0529V1.95595C107.657 1.32159 107.518 0.845815 107.207 0.546255C106.912 0.246696 106.445 0.0881057 105.822 0.0881057H102.568V3.0837ZM34.4605 1.77974H31.1201V5.5859H29.2508V8.37004H31.0335V14.467C31.0335 16.5286 31.7432 17.9912 33.1797 18.8546C34.1317 19.4361 35.3259 19.7357 36.7625 19.7357C37.1779 19.7357 37.5241 19.7004 37.801 19.6476V16.5991C37.6452 16.6344 37.4375 16.652 37.1779 16.652C36.4856 16.652 35.9144 16.511 35.4644 16.2115C34.7894 15.7709 34.4432 15.0485 34.4432 14.0264V8.37004H37.576V5.60352H34.4432V1.77974H34.4605ZM50.2456 5.60352V12.0352C50.2456 13.3568 49.9167 14.467 49.2417 15.348C48.5321 16.2996 47.5801 16.7577 46.3859 16.7577C45.5897 16.7577 45.0185 16.4934 44.6897 15.9648C44.3954 15.5242 44.257 14.8194 44.257 13.8855V7.43612C44.257 6.80176 44.1185 6.34361 43.8243 6.04405C43.53 5.74449 43.08 5.5859 42.4396 5.5859H39.1857V8.37004H40.2588C40.6569 8.37004 40.8646 8.56388 40.8646 8.96916V14.5903C40.8646 18.1498 42.4396 19.9119 45.607 19.9119C46.7147 19.9119 47.7186 19.6123 48.6359 18.9956C49.4321 18.467 50.0033 17.7974 50.3667 17.0044H50.4187L50.4014 17.1982C50.4014 17.3568 50.4014 17.4978 50.4014 17.6388V18.0264C50.4014 18.5198 50.5571 18.9075 50.8687 19.1718C51.1802 19.4361 51.6302 19.5771 52.2187 19.5771H55.3688V16.652H54.2957C54.1053 16.652 53.9668 16.5991 53.863 16.4934C53.7591 16.3877 53.7072 16.2467 53.7072 16.0529V5.60352H50.2456ZM60.1458 0.563877C59.8516 0.264317 59.3843 0.105727 58.7612 0.105727H55.49V3.0837H56.5631C56.9611 3.0837 57.1688 3.27753 57.1688 3.68282V19.6123H60.4055V18.9075C60.4055 18.6784 60.3882 18.4493 60.3709 18.2379L60.3535 17.9736H60.4055L60.6305 18.2907C60.8555 18.5374 61.0978 18.7665 61.3747 18.9604C62.2574 19.6123 63.3132 19.9471 64.5075 19.9471C66.3422 19.9471 67.848 19.2775 69.0249 17.9559C70.2192 16.5991 70.8077 14.8194 70.8077 12.6167C70.8077 10.4317 70.2538 8.6696 69.1634 7.3304C68.0557 5.97357 66.5672 5.30396 64.7325 5.30396C63.5209 5.30396 62.4651 5.63877 61.5824 6.27313C61.1324 6.59031 60.8036 6.92511 60.5959 7.24229H60.5439C60.5785 6.90749 60.5959 6.51982 60.5959 6.06167V1.97357C60.5959 1.33921 60.4401 0.863436 60.1458 0.563877ZM61.5478 9.32159C62.1709 8.61674 62.9671 8.26432 63.9363 8.26432C64.9575 8.26432 65.7883 8.6696 66.4114 9.46255C67.0518 10.2731 67.3633 11.3304 67.3633 12.652C67.3633 13.9912 67.0172 15.0661 66.3249 15.859C65.6845 16.6167 64.8883 16.9868 63.9017 16.9868C62.8113 16.9868 61.9632 16.5463 61.3228 15.6476C60.7516 14.837 60.4747 13.8502 60.4747 12.6872C60.492 11.2247 60.8382 10.0969 61.5478 9.32159ZM131.975 11.9295C131.975 10.0088 131.455 8.44053 130.417 7.22467C129.309 5.93833 127.803 5.28634 125.882 5.28634C123.823 5.28634 122.144 5.97357 120.846 7.34802C119.547 8.70485 118.907 10.467 118.907 12.6344C118.907 14.696 119.565 16.4053 120.897 17.7797C122.282 19.2247 124.082 19.9471 126.298 19.9471C127.717 19.9471 129.067 19.5947 130.348 18.8899C130.746 18.6784 131.109 18.4317 131.438 18.1674L131.819 17.8326L130.4 15.4185L130.105 15.6652C129.846 15.859 129.586 16.0352 129.292 16.1938C128.375 16.7225 127.457 16.9868 126.54 16.9868C125.45 16.9868 124.549 16.6696 123.805 16.0176C123.009 15.3304 122.542 14.3965 122.421 13.2159H131.888C131.94 12.6344 131.975 12.2115 131.975 11.9295ZM127.682 8.77533C128.184 9.30396 128.444 9.97357 128.461 10.8018H122.507C122.698 9.9207 123.078 9.23348 123.684 8.72247C124.273 8.22907 125.017 7.98238 125.882 7.98238C126.592 7.98238 127.198 8.2467 127.682 8.77533ZM142.377 5.40969C141.356 5.40969 140.456 5.76211 139.642 6.46696C138.881 7.11894 138.344 7.96476 138.015 9.02203H137.946C137.981 8.79295 137.998 8.49339 137.998 8.14097V7.31278C137.998 6.73128 137.842 6.29075 137.531 6.00881C137.236 5.72687 136.769 5.5859 136.163 5.5859H133.03V8.56388H134.104C134.502 8.56388 134.692 8.75771 134.692 9.163V19.5947H138.119V14.0617C138.119 13.2687 138.223 12.511 138.413 11.7709C138.708 10.8018 139.227 10.0441 139.971 9.51542C140.629 9.05727 141.356 8.82819 142.152 8.82819C142.481 8.82819 142.758 8.84581 142.983 8.88106V5.46255C142.792 5.42731 142.585 5.40969 142.377 5.40969Z" fill="white"/>
<g opacity="0.9">
<g opacity="0.9">
<g opacity="0.9">
<path opacity="0.9" d="M24.7507 0.123535H20.2505L9.00024 20.0002H13.5004L24.7507 0.123535Z" fill="white"/>
</g>
</g>
</g>
<g opacity="0.8">
<g opacity="0.8">
<g opacity="0.8">
<path opacity="0.8" d="M20.2505 0.123535H15.7504L4.50012 20.0002H9.00024L20.2505 0.123535Z" fill="white"/>
</g>
</g>
</g>
<g opacity="0.7">
<g opacity="0.7">
<g opacity="0.7">
<path opacity="0.7" d="M15.7504 0.123535H11.2503L0 20.0002H4.50012L15.7504 0.123535Z" fill="white"/>
</g>
</g>
</g>
</svg>
