<svg width="20" height="16" viewBox="0 0 20 16" fill="none" xmlns="http://www.w3.org/2000/svg">
<path d="M0 7.9443V8.0557C0 8.6767 0.14218 9.2902 0.47072 9.8171C0.94914 10.5845 1.79223 11.7922 3 13C4.50675 14.5068 6.0135 15.4459 6.66506 15.8175C6.88326 15.942 7.13077 16 7.38197 16C8.5848 16 9.4087 14.7132 9.0246 13.5734C8.7842 12.86 8.5419 12.0291 8.3534 11.1363C8.2275 10.5404 8.6961 10 9.3051 10H19C19.5523 10 20 9.5523 20 9V7C20 6.4477 19.5523 6 19 6H9.3051C8.6961 6 8.2275 5.45957 8.3534 4.86371C8.5419 3.97089 8.7842 3.14 9.0246 2.42662C9.4087 1.28677 8.5848 0 7.38197 0C7.13077 0 6.88326 0.0580298 6.66506 0.18247C6.0135 0.55407 4.50675 1.49325 3 3C1.79223 4.20777 0.94914 5.41554 0.47072 6.1829C0.14218 6.7098 0 7.3233 0 7.9443Z" fill="white"/>
</svg>
