<svg width="20" height="16" viewBox="0 0 20 16" fill="none" xmlns="http://www.w3.org/2000/svg">
<path d="M20 8.0557L20 7.9443C20 7.3233 19.8578 6.7098 19.5293 6.1829C19.0509 5.4155 18.2078 4.2078 17 3C15.4933 1.4932 13.9865 0.5541 13.3349 0.1825C13.1167 0.058 12.8692 -6.23392e-07 12.618 -6.45352e-07C11.4152 -7.50507e-07 10.5913 1.2868 10.9754 2.4266C11.2158 3.14 11.4581 3.9709 11.6466 4.8637C11.7725 5.4596 11.3039 6 10.6949 6L1 6C0.447701 6 8.35089e-07 6.4477 7.86805e-07 7L6.11959e-07 9C5.63676e-07 9.5523 0.447701 10 1 10L10.6949 10C11.3039 10 11.7725 10.5404 11.6466 11.1363C11.4581 12.0291 11.2158 12.86 10.9754 13.5734C10.5913 14.7132 11.4152 16 12.618 16C12.8692 16 13.1167 15.942 13.3349 15.8175C13.9865 15.4459 15.4933 14.5067 17 13C18.2078 11.7922 19.0509 10.5845 19.5293 9.8171C19.8578 9.2902 20 8.6767 20 8.0557Z" fill="white"/>
</svg>
