<svg width="24" height="24" viewBox="0 0 24 24" fill="none" xmlns="http://www.w3.org/2000/svg">
<path opacity="0.2" d="M6.11111 3C3.66667 3 3 3.66667 3 6.11111V17.8889C3 20.3333 3.66667 21 6.11111 21H7.88889C10.3333 21 11 20.3333 11 17.8889V6.11111C11 3.66667 10.3333 3 7.88889 3H6.11111Z" fill="white"/>
<path fill-rule="evenodd" clip-rule="evenodd" d="M6.11111 3C3.66667 3 3 3.66667 3 6.11111V17.8889C3 20.3333 3.66667 21 6.11111 21H7.88889C10.3333 21 11 20.3333 11 17.8889V6.11111C11 3.66667 10.3333 3 7.88889 3H6.11111ZM5 6.11111C5 5.57694 5.03819 5.26231 5.08191 5.08191C5.26231 5.03819 5.57694 5 6.11111 5H7.88889C8.42306 5 8.73769 5.03819 8.9181 5.08191C8.96181 5.26231 9 5.57694 9 6.11111V17.8889C9 18.4231 8.96181 18.7377 8.9181 18.9181C8.73769 18.9618 8.42306 19 7.88889 19H6.11111C5.57694 19 5.26231 18.9618 5.08191 18.9181C5.03819 18.7377 5 18.4231 5 17.8889V6.11111Z" fill="white"/>
<path d="M13 7.88889C13 10.3333 13.6667 11 16.1111 11H17.8889C20.3333 11 21 10.3333 21 7.88889V6.11111C21 3.66667 20.3333 3 17.8889 3H16.1111C13.6667 3 13 3.66667 13 6.11111V7.88889Z" fill="white"/>
<path d="M13 17.8889C13 20.3333 13.6667 21 16.1111 21H17.8889C20.3333 21 21 20.3333 21 17.8889V16.1111C21 13.6667 20.3333 13 17.8889 13H16.1111C13.6667 13 13 13.6667 13 16.1111V17.8889Z" fill="white"/>
</svg>
