<svg width="24" height="24" viewBox="0 0 24 24" fill="none" xmlns="http://www.w3.org/2000/svg">
<path opacity="0.2" d="M4 12.5914V14C4 19.5 5.5 21 11 21H13C18.5 21 20 19.5 20 14V12.5914C17.8387 12.3168 14.7447 12 12 12C9.25531 12 6.16129 12.3168 4 12.5914Z" fill="#7352FF"/>
<path d="M9.64731 2.71086L1.48746 8.64529C1.1812 8.86803 1 9.22386 1 9.60256C1 10.334 1.65458 10.8941 2.37874 10.7912C4.44258 10.4981 8.47044 9.99981 12 9.99981C15.5296 9.99981 19.5574 10.4981 21.6213 10.7912C22.3454 10.8941 23 10.334 23 9.60256C23 9.22386 22.8188 8.86803 22.5125 8.64529L14.3527 2.71086C12.9501 1.69078 11.0499 1.69078 9.64731 2.71086Z" fill="#7352FF"/>
<path fill-rule="evenodd" clip-rule="evenodd" d="M4 13.9998V12.5912C6.16129 12.3167 9.25531 11.9998 12 11.9998C14.7447 11.9998 17.8387 12.3167 20 12.5912V13.9998C20 19.4998 18.5 20.9998 13 20.9998H11C5.5 20.9998 4 19.4998 4 13.9998ZM12 13.9998C13.9609 13.9998 16.1336 14.1705 17.9973 14.3701C17.9614 16.8183 17.566 17.7304 17.1483 18.1481C16.7102 18.5862 15.7281 18.9998 13 18.9998H11C8.27189 18.9998 7.28981 18.5862 6.85171 18.1481C6.43404 17.7304 6.03862 16.8183 6.00266 14.3701C7.86644 14.1705 10.0391 13.9998 12 13.9998Z" fill="#7352FF"/>
</svg>
