<svg width="18" height="14" viewBox="0 0 18 14" fill="none" xmlns="http://www.w3.org/2000/svg">
<path d="M16.9411 8.51426C17.2148 8.07518 17.3333 7.56393 17.3333 7.04643V6.95359C17.3333 6.43609 17.2148 5.92484 16.9411 5.48576C16.5424 4.84629 15.8398 3.83982 14.8333 2.83334C13.5777 1.57772 12.3221 0.795068 11.7791 0.485402C11.5972 0.381702 11.391 0.333344 11.1817 0.333344C10.1793 0.333344 9.49274 1.40565 9.81282 2.35553C10.0132 2.95001 10.2151 3.64242 10.3722 4.38644C10.4771 4.88299 10.0866 5.33334 9.57907 5.33334H1.49999C1.03976 5.33334 0.666656 5.70643 0.666656 6.16668V7.83334C0.666656 8.29359 1.03976 8.66668 1.49999 8.66668H9.57907C10.0866 8.66668 10.4771 9.11701 10.3722 9.61359C10.2151 10.3576 10.0132 11.05 9.81282 11.6445C9.49274 12.5943 10.1793 13.6667 11.1817 13.6667C11.391 13.6667 11.5972 13.6183 11.7791 13.5146C12.3221 13.2049 13.5777 12.4223 14.8333 11.1667C15.8398 10.1602 16.5424 9.15376 16.9411 8.51426Z" fill="#6EE4B5"/>
</svg>
